<svg id="visual" viewBox="0 0 900 900" width="900" height="900" xmlns="http://www.w3.org/2000/svg" xmlns:xlink="http://www.w3.org/1999/xlink" version="1.1"><rect width="900" height="900" fill="#000"></rect><g><g transform="translate(148 400)"><path d="M82.4 -23.5C95.6 13.8 87.3 61.3 56.7 85.2C26.1 109.2 -26.8 109.5 -60.4 84.7C-94.1 59.9 -108.3 10 -95 -27.4C-81.8 -64.9 -40.9 -90 -3.1 -89C34.6 -88 69.2 -60.8 82.4 -23.5Z" fill="none" stroke="#c6900e" stroke-width="3"></path></g><g transform="translate(154 37)"><path d="M50 -15.5C56.5 3.7 47.7 28.6 30.5 40.7C13.4 52.9 -12.1 52.3 -26.8 40.7C-41.6 29.1 -45.6 6.5 -39.3 -12.3C-33.1 -31.2 -16.5 -46.2 2.6 -47.1C21.8 -47.9 43.5 -34.6 50 -15.5Z" fill="none" stroke="#c6900e" stroke-width="3"></path></g><g transform="translate(329 830)"><path d="M47.7 -16C53.9 3.5 45.5 27.3 29.3 38.6C13.1 50 -10.8 48.9 -25.9 37.5C-41 26.1 -47.3 4.3 -41.5 -14.6C-35.7 -33.6 -17.9 -49.7 1.4 -50.2C20.8 -50.6 41.5 -35.4 47.7 -16Z" fill="none" stroke="#c6900e" stroke-width="3"></path></g><g transform="translate(485 390)"><path d="M44.2 -15.2C50.8 6 45.3 30.3 29.4 42.3C13.6 54.2 -12.5 53.7 -28.9 41.4C-45.2 29.2 -51.7 5.1 -45.2 -15.8C-38.8 -36.7 -19.4 -54.5 -0.3 -54.4C18.8 -54.3 37.6 -36.3 44.2 -15.2Z" stroke="#c6900e" fill="none" stroke-width="3"></path></g><g transform="translate(706 119)"><path d="M73.2 -24.9C82.3 4.4 68.6 40 42.6 58.9C16.6 77.8 -21.6 80.1 -47.8 62C-74 43.9 -88.1 5.3 -78.2 -25.1C-68.2 -55.5 -34.1 -77.7 -1 -77.3C32 -77 64 -54.1 73.2 -24.9Z" stroke="#c6900e" fill="none" stroke-width="3"></path></g><g transform="translate(795 635)"><path d="M76.6 -21.6C89.1 13.4 81.9 58.2 54.1 79.6C26.3 101.1 -22.2 99.2 -55.6 75.3C-89 51.3 -107.3 5.3 -95.5 -28.8C-83.7 -63 -41.8 -85.1 -4.9 -83.5C32.1 -82 64.2 -56.6 76.6 -21.6Z" stroke="#c6900e" fill="none" stroke-width="3"></path></g><g transform="translate(69 680)"><path d="M49.4 -14.3C56.2 4.6 48.2 30.1 31.9 41.3C15.6 52.6 -9.2 49.7 -27.1 36.8C-45 23.9 -56 1.1 -50.4 -16.4C-44.7 -33.9 -22.3 -46 -0.5 -45.9C21.4 -45.7 42.7 -33.3 49.4 -14.3Z" stroke="#c6900e" fill="none" stroke-width="3"></path></g></g></svg>