<?xml version="1.0" encoding="UTF-8" standalone="no"?>
<svg
   id="visual"
   viewBox="0 0 900 900"
   width="900"
   height="900"
   version="1.1"
   sodipodi:docname="bubbles.svg"
   inkscape:version="1.1.2 (b8e25be8, 2022-02-05)"
   xmlns:inkscape="http://www.inkscape.org/namespaces/inkscape"
   xmlns:sodipodi="http://sodipodi.sourceforge.net/DTD/sodipodi-0.dtd"
   xmlns="http://www.w3.org/2000/svg"
   xmlns:svg="http://www.w3.org/2000/svg">
  <defs
     id="defs37" />
  <sodipodi:namedview
     id="namedview35"
     pagecolor="#ffffff"
     bordercolor="#666666"
     borderopacity="1.0"
     inkscape:pageshadow="2"
     inkscape:pageopacity="0.0"
     inkscape:pagecheckerboard="0"
     showgrid="false"
     inkscape:zoom="1.1950145"
     inkscape:cx="174.47487"
     inkscape:cy="447.69331"
     inkscape:window-width="1310"
     inkscape:window-height="916"
     inkscape:window-x="0"
     inkscape:window-y="298"
     inkscape:window-maximized="0"
     inkscape:current-layer="visual" />
  <rect
     width="900"
     height="900"
     fill="#000"
     id="rect2" />
  <g
     id="g32">
    <g
       transform="translate(148 400)"
       id="g6">
      <path
         d="M82.4 -23.5C95.6 13.8 87.3 61.3 56.7 85.2C26.1 109.2 -26.8 109.5 -60.4 84.7C-94.1 59.9 -108.3 10 -95 -27.4C-81.8 -64.9 -40.9 -90 -3.1 -89C34.6 -88 69.2 -60.8 82.4 -23.5Z"
         fill="none"
         stroke="#c6900e"
         stroke-width="3"
         id="path4" />
    </g>
    <g
       transform="translate(154 37)"
       id="g10">
      <path
         d="M50 -15.5C56.5 3.7 47.7 28.6 30.5 40.7C13.4 52.9 -12.1 52.3 -26.8 40.7C-41.6 29.1 -45.6 6.5 -39.3 -12.3C-33.1 -31.2 -16.5 -46.2 2.6 -47.1C21.8 -47.9 43.5 -34.6 50 -15.5Z"
         fill="none"
         stroke="#c6900e"
         stroke-width="3"
         id="path8" />
    </g>
    <g
       transform="translate(329 830)"
       id="g14">
      <path
         d="M47.7 -16C53.9 3.5 45.5 27.3 29.3 38.6C13.1 50 -10.8 48.9 -25.9 37.5C-41 26.1 -47.3 4.3 -41.5 -14.6C-35.7 -33.6 -17.9 -49.7 1.4 -50.2C20.8 -50.6 41.5 -35.4 47.7 -16Z"
         fill="none"
         stroke="#c6900e"
         stroke-width="3"
         id="path12" />
    </g>
    <g
       transform="translate(485 390)"
       id="g18">
      <path
         d="M44.2 -15.2C50.8 6 45.3 30.3 29.4 42.3C13.6 54.2 -12.5 53.7 -28.9 41.4C-45.2 29.2 -51.7 5.1 -45.2 -15.8C-38.8 -36.7 -19.4 -54.5 -0.3 -54.4C18.8 -54.3 37.6 -36.3 44.2 -15.2Z"
         stroke="#c6900e"
         fill="none"
         stroke-width="3"
         id="path16" />
    </g>
    <g
       transform="translate(706 119)"
       id="g22">
      <path
         d="M73.2 -24.9C82.3 4.4 68.6 40 42.6 58.9C16.6 77.8 -21.6 80.1 -47.8 62C-74 43.9 -88.1 5.3 -78.2 -25.1C-68.2 -55.5 -34.1 -77.7 -1 -77.3C32 -77 64 -54.1 73.2 -24.9Z"
         stroke="#c6900e"
         fill="none"
         stroke-width="3"
         id="path20" />
    </g>
    <g
       transform="translate(795 635)"
       id="g26">
      <path
         d="M76.6 -21.6C89.1 13.4 81.9 58.2 54.1 79.6C26.3 101.1 -22.2 99.2 -55.6 75.3C-89 51.3 -107.3 5.3 -95.5 -28.8C-83.7 -63 -41.8 -85.1 -4.9 -83.5C32.1 -82 64.2 -56.6 76.6 -21.6Z"
         stroke="#c6900e"
         fill="none"
         stroke-width="3"
         id="path24" />
    </g>
    <g
       transform="translate(69 680)"
       id="g30">
      <path
         d="M49.4 -14.3C56.2 4.6 48.2 30.1 31.9 41.3C15.6 52.6 -9.2 49.7 -27.1 36.8C-45 23.9 -56 1.1 -50.4 -16.4C-44.7 -33.9 -22.3 -46 -0.5 -45.9C21.4 -45.7 42.7 -33.3 49.4 -14.3Z"
         stroke="#c6900e"
         fill="none"
         stroke-width="3"
         id="path28" />
    </g>
  </g>
  <path
     style="fill:#000000;stroke-width:1.29683"
     d="m 225.01986,459.47855 c 0.0109,-0.57703 0.58556,-1.92452 1.27697,-2.9944 1.08337,-1.6764 1.25986,-1.64217 1.27697,0.24767 0.0109,1.20611 -0.56371,2.55359 -1.27697,2.9944 -0.71326,0.44082 -1.28789,0.32937 -1.27697,-0.24767 z"
     id="path1152" />
  <path
     style="fill:#000000;stroke-width:0.83681"
     d="m 138.49204,504.00778 c -18.68846,-1.4701 -38.31429,-8.74174 -52.554778,-19.47227 -19.144427,-14.42576 -32.982358,-38.35545 -37.457834,-64.77518 -1.929166,-11.3883 -1.349881,-29.89441 1.247358,-39.84862 6.440125,-24.68252 24.10795,-45.94988 48.598381,-58.49952 27.840063,-14.26609 55.024953,-15.27862 80.947603,-3.01496 29.88043,14.13602 50.91722,42.25509 56.61756,75.67851 2.36021,13.83888 1.4215,35.06568 -2.07507,46.92309 -2.68108,9.09195 -5.15433,14.93079 -6.16087,14.54454 -0.82066,-0.31492 -0.51479,-1.87292 1.27017,-6.46975 8.17078,-21.04239 8.26907,-50.35604 0.24377,-72.70469 -5.24123,-14.59566 -12.41728,-25.55432 -24.5305,-37.46091 -14.07545,-13.83534 -27.95615,-21.41111 -46.06235,-25.13977 -16.4228,-3.38199 -35.94638,-1.08979 -52.80745,6.19995 -20.944133,9.05503 -40.178654,27.16309 -48.897472,46.03383 -13.444502,29.09887 -8.857978,67.79947 11.541307,97.38434 5.608016,8.13325 17.999601,19.76263 26.427498,24.80195 8.084087,4.83375 19.201757,9.16475 29.767537,11.59624 10.5395,2.42544 33.59244,2.59412 44.0103,0.32201 23.84387,-5.20026 42.12768,-17.51641 52.80945,-35.57291 1.94974,-3.29586 3.29783,-4.78002 3.96641,-4.36682 1.30104,0.80409 -5.36462,11.13653 -11.50627,17.83587 -12.94282,14.11812 -33.126,23.35424 -56.21163,25.72327 -8.25702,0.84733 -11.40581,0.89359 -19.18312,0.2818 z"
     id="path1191" />
  <path
     style="fill:#000000;stroke-width:0.83681"
     d="m 135.98161,500.80908 c -0.69036,-0.13526 -4.07944,-0.70303 -7.53129,-1.2617 -37.922086,-6.13766 -66.595147,-34.33973 -75.904993,-74.65819 -1.784568,-7.72848 -2.182794,-11.58453 -2.225208,-21.5468 -0.02932,-6.88694 0.410914,-14.30484 1.018088,-17.15461 3.796609,-17.81937 11.391773,-31.8975 23.928677,-44.35336 17.014795,-16.9048 40.208146,-27.44863 62.970626,-28.62682 43.81856,-2.26805 84.18162,31.02126 94.06845,77.58264 2.40402,11.3216 2.61671,30.22459 0.46333,41.17926 -7.67846,39.06191 -32.51461,62.90436 -71.26497,68.41369 -5.28797,0.75181 -22.40163,1.03738 -25.52271,0.42589 z"
     id="path1267" />
  <path
     style="fill:#000000;stroke-width:0.83681"
     d=""
     id="path1306" />
  <path
     style="fill:#000000;stroke-width:0.83681"
     d=""
     id="path1345" />
  <path
     style="fill:#000000;stroke-width:0.83681"
     d="m 130.54235,502.53531 c -9.20606,-1.68671 -18.79945,-4.53755 -24.26749,-7.21149 -6.05519,-2.96106 -4.65186,-2.66621 7.9497,1.67032 12.21023,4.20186 22.77947,5.50124 39.33006,4.83524 23.18606,-0.93303 41.55408,-8.26346 56.65934,-22.61198 3.35578,-3.18766 6.10141,-5.431 6.10141,-4.98519 0,1.49035 -10.47266,10.88875 -16.42157,14.73708 -14.96808,9.6828 -33.92941,14.86092 -53.87047,14.7114 -5.29282,-0.0397 -12.25926,-0.55511 -15.48098,-1.14538 z"
     id="path1384" />
  <ellipse
     style="fill:#000000"
     id="path1445"
     cx="149.78897"
     cy="387.86139"
     rx="115.47977"
     ry="121.75584" />
</svg>
