<svg id="visual" xmlns="http://www.w3.org/2000/svg" xmlns:xlink="http://www.w3.org/1999/xlink" version="1.1" viewBox="0 446 540 515"><path d="M0 446L12.8 447.5C25.7 449 51.3 452 77 453.5C102.7 455 128.3 455 154 452.7C179.7 450.3 205.3 445.7 231.2 449.2C257 452.7 283 464.3 308.8 463.5C334.7 462.7 360.3 449.3 386 452.3C411.7 455.3 437.3 474.7 463 483C488.7 491.3 514.3 488.7 527.2 487.3L540 486L540 961L527.2 961C514.3 961 488.7 961 463 961C437.3 961 411.7 961 386 961C360.3 961 334.7 961 308.8 961C283 961 257 961 231.2 961C205.3 961 179.7 961 154 961C128.3 961 102.7 961 77 961C51.3 961 25.7 961 12.8 961L0 961Z" fill="#111a23" stroke-linecap="round" stroke-linejoin="miter"/></svg>