<svg id="visual" xmlns="http://www.w3.org/2000/svg" xmlns:xlink="http://www.w3.org/1999/xlink" version="1.1" viewBox="0 840 450 61"><path d="M0 840L12.5 842.2C25 844.3 50 848.7 75 849.3C100 850 125 847 150 848.8C175 850.7 200 857.3 225 861.5C250 865.7 275 867.3 300 863.2C325 859 350 849 375 847.8C400 846.7 425 854.3 437.5 858.2L450 862L450 901L437.5 901C425 901 400 901 375 901C350 901 325 901 300 901C275 901 250 901 225 901C200 901 175 901 150 901C125 901 100 901 75 901C50 901 25 901 12.5 901L0 901Z" fill="#282828"/><path d="M0 862L12.5 859.8C25 857.7 50 853.3 75 852.3C100 851.3 125 853.7 150 857.7C175 861.7 200 867.3 225 870C250 872.7 275 872.3 300 872.5C325 872.7 350 873.3 375 870.5C400 867.7 425 861.3 437.5 858.2L450 855L450 901L437.5 901C425 901 400 901 375 901C350 901 325 901 300 901C275 901 250 901 225 901C200 901 175 901 150 901C125 901 100 901 75 901C50 901 25 901 12.5 901L0 901Z" fill="#121212"/><path d="M0 865L12.5 864.3C25 863.7 50 862.3 75 862C100 861.7 125 862.3 150 865.2C175 868 200 873 225 876.3C250 879.7 275 881.3 300 880.8C325 880.3 350 877.7 375 875C400 872.3 425 869.7 437.5 868.3L450 867L450 901L437.5 901C425 901 400 901 375 901C350 901 325 901 300 901C275 901 250 901 225 901C200 901 175 901 150 901C125 901 100 901 75 901C50 901 25 901 12.5 901L0 901Z" fill="#000000"/><path d="M0 890L12.5 887.3C25 884.7 50 879.3 75 877.7C100 876 125 878 150 880C175 882 200 884 225 884.5C250 885 275 884 300 883.8C325 883.7 350 884.3 375 883.2C400 882 425 879 437.5 877.5L450 876L450 901L437.5 901C425 901 400 901 375 901C350 901 325 901 300 901C275 901 250 901 225 901C200 901 175 901 150 901C125 901 100 901 75 901C50 901 25 901 12.5 901L0 901Z" fill="#000000"/></svg>