<svg id="visual" viewBox="0 0 900 600" width="900" height="600" xmlns="http://www.w3.org/2000/svg" xmlns:xlink="http://www.w3.org/1999/xlink" version="1.1"><rect x="0" y="0" width="900" height="600" fill="#002233"></rect><path d="M0 14L9.3 16.8C18.7 19.7 37.3 25.3 56.2 28.7C75 32 94 33 112.8 32C131.7 31 150.3 28 169 28.7C187.7 29.3 206.3 33.7 225 35.7C243.7 37.7 262.3 37.3 281.2 33.5C300 29.7 319 22.3 337.8 21C356.7 19.7 375.3 24.3 394 25.5C412.7 26.7 431.3 24.3 450 22.2C468.7 20 487.3 18 506.2 17.8C525 17.7 544 19.3 562.8 22.5C581.7 25.7 600.3 30.3 619 31.7C637.7 33 656.3 31 675 28.8C693.7 26.7 712.3 24.3 731.2 22.7C750 21 769 20 787.8 21C806.7 22 825.3 25 844 29.2C862.7 33.3 881.3 38.7 890.7 41.3L900 44L900 0L890.7 0C881.3 0 862.7 0 844 0C825.3 0 806.7 0 787.8 0C769 0 750 0 731.2 0C712.3 0 693.7 0 675 0C656.3 0 637.7 0 619 0C600.3 0 581.7 0 562.8 0C544 0 525 0 506.2 0C487.3 0 468.7 0 450 0C431.3 0 412.7 0 394 0C375.3 0 356.7 0 337.8 0C319 0 300 0 281.2 0C262.3 0 243.7 0 225 0C206.3 0 187.7 0 169 0C150.3 0 131.7 0 112.8 0C94 0 75 0 56.2 0C37.3 0 18.7 0 9.3 0L0 0Z" fill="#C6900E" stroke-linecap="round" stroke-linejoin="miter"></path></svg>