<svg id="visual" viewBox="0 0 900 900" width="900" height="900" xmlns="http://www.w3.org/2000/svg" xmlns:xlink="http://www.w3.org/1999/xlink" version="1.1"><rect x="0" y="0" width="900" height="900" fill="#325373"></rect><path d="M0 318L225 281L450 247L675 281L900 262L900 901L675 901L450 901L225 901L0 901Z" fill="#152330"></path><path d="M0 434L225 352L450 382L675 328L900 364L900 901L675 901L450 901L225 901L0 901Z" fill="#111f2c"></path><path d="M0 500L225 402L450 473L675 404L900 476L900 901L675 901L450 901L225 901L0 901Z" fill="#0d1c28"></path><path d="M0 479L225 528L450 530L675 562L900 486L900 901L675 901L450 901L225 901L0 901Z" fill="#091824"></path><path d="M0 631L225 559L450 586L675 566L900 604L900 901L675 901L450 901L225 901L0 901Z" fill="#031420"></path><path d="M0 660L225 639L450 657L675 688L900 630L900 901L675 901L450 901L225 901L0 901Z" fill="#000f1c"></path><path d="M0 742L225 723L450 710L675 706L900 750L900 901L675 901L450 901L225 901L0 901Z" fill="#000919"></path><path d="M0 822L225 807L450 790L675 786L900 796L900 901L675 901L450 901L225 901L0 901Z" fill="#000000"></path></svg>