<svg viewBox="0 342.896 500 157.104" xmlns="http://www.w3.org/2000/svg"><path d="m116.48 397.548h-33.219c.054-.567.084-1.227.084-1.893 0-3.291-.743-6.408-2.073-9.193l.057.128c-1.984-2.743-7.438-4.115-16.363-4.115-.966-.082-2.091-.129-3.227-.129-5.037 0-9.858.92-14.304 2.602l.278-.092c-2.809 1.586-4.214 5.057-4.214 10.412-.067.443-.107.957-.107 1.479 0 3.236 1.483 6.124 3.807 8.025l.018.015c2.045 1.153 4.478 1.86 7.068 1.933h.022l6.694.496c14.378.958 23.352 1.62 26.922 1.983 9.444.233 18.054 3.616 24.866 9.134l-.076-.061c3.952 3.831 6.589 8.999 7.18 14.773l.008.102c.444 3.611.695 7.792.695 12.032 0 .162 0 .324-.001.487v-.026c.063 1.08.099 2.345.099 3.615 0 7.12-1.124 13.978-3.204 20.404l.13-.468c-3.702 9.09-11.964 14.84-24.79 17.254-6.444 1.002-13.879 1.575-21.447 1.575-1.174 0-2.347-.014-3.516-.041l.173.002c-1.951.09-4.241.141-6.542.141-11.469 0-22.645-1.261-33.397-3.653l1.019.191c-8.412-2.2-15.015-8.393-17.745-16.381l-.054-.179c-1.784-6.25-2.811-13.428-2.811-20.846 0-.83.012-1.655.038-2.478l-.002.121h33.266v2.776c0 5.752 1.654 9.453 4.959 11.106 2.394 1.127 5.2 1.785 8.16 1.785h.179 12.237c.758.045 1.642.073 2.535.073 3.335 0 6.585-.371 9.708-1.07l-.294.055c2.769-.982 4.929-3.078 5.976-5.734l.023-.068c.478-1.718.753-3.691.753-5.73 0-.233-.003-.467-.01-.699v.033c0-5.849-2.131-9.403-6.396-10.658-6.42-1.027-14.097-1.773-21.889-2.071l-.372-.013c-10.643-.759-18.03-1.487-22.163-2.181-10.873-2.049-18.112-6.248-21.716-12.593-3.174-6.354-5.032-13.842-5.032-21.765 0-.959.027-1.912.081-2.859l-.005.132c-.018-.549-.028-1.195-.028-1.843 0-6.413.952-12.603 2.722-18.438l-.116.45c1.495-4.746 4.419-8.679 8.261-11.409l.067-.045c6.064-4.096 13.458-6.672 21.426-7.038l.093-.002c7.271-.628 15.336-.942 24.193-.942 1.383-.053 3.007-.083 4.637-.083 8.885 0 17.561.897 25.944 2.604l-.833-.141c14.478 3.9 21.716 14.791 21.716 32.673 0 1.486 0 3.669-.347 6.594zm146.21 90.433v-132.775h66.586c.779-.029 1.694-.045 2.611-.045 6.487 0 12.781.831 18.78 2.391l-.518-.114c10.455 2.99 18.609 10.818 21.996 20.843l.068.229c1.899 6.557 2.991 14.089 2.991 21.875 0 1.165-.023 2.324-.071 3.477l.005-.165c.063 1.295.1 2.813.1 4.339 0 8.793-1.212 17.304-3.481 25.373l.158-.659c-3.907 11.21-14.03 19.264-26.138 20.075l-.09.005c-1.554.264-8.164.495-19.832.694h-27.269v34.26zm35.748-65.098h22.459c.453.019.985.029 1.519.029 4.054 0 7.967-.609 11.653-1.739l-.281.074c2.322-1.562 3.906-4.064 4.21-6.95l.004-.041c.451-2.729.709-5.874.709-9.079 0-.451-.006-.901-.015-1.35l.001.068c.022-.522.036-1.135.036-1.749 0-3.819-.501-7.521-1.442-11.044l.067.298c-1.439-3.881-4.968-6.663-9.186-6.988l-.036-.003h-29.698zm152.954 42.144h-47.746l-6.396 22.954h-36.987l39.664-132.775h54.091l40.408 132.775h-36.194zm-7.091-25.882-16.709-57.512-16.261 57.512zm-230.942-65.246h.029c14.701 0 27.825 6.748 36.444 17.317l.067.084 7.685-16.509c-12.092-11.403-28.438-18.412-46.419-18.412-27.772 0-51.639 16.715-62.09 40.633l-.17.437h-14.875l-8.973 19.187h19.336v5.305c.008 2.281.135 4.523.372 6.73l-.024-.285h-9.917l-8.874 19.04h23.5c10.668 23.733 34.101 39.962 61.324 39.962.124 0 .249 0 .373-.001h-.02.244c13.925 0 26.87-4.203 37.633-11.41l-.245.155v-23.302c-8.659 9.863-21.294 16.055-35.375 16.055-16.423 0-30.878-8.424-39.281-21.183l-.11-.178h49.232l8.875-19.037h-65.396c-.322-2.078-.504-4.475-.504-6.914 0-1.739.093-3.456.274-5.147l-.017.21h71.096l8.974-19.187h-73.924c8.279-14.188 23.418-23.576 40.751-23.601h.004z" fill="grey"/></svg>