<?xml version="1.0" standalone="no"?>
<!DOCTYPE svg PUBLIC "-//W3C//DTD SVG 20010904//EN"
 "http://www.w3.org/TR/2001/REC-SVG-20010904/DTD/svg10.dtd">
<svg version="1.0" xmlns="http://www.w3.org/2000/svg"
 width="1920.000000pt" height="1920.000000pt" viewBox="0 0 1920.000000 1920.000000"
 preserveAspectRatio="xMidYMid meet">
<metadata>
Created by potrace 1.14, written by Peter Selinger 2001-2017
</metadata>
<g transform="translate(0.000000,1920.000000) scale(0.100000,-0.100000)"
fill="#000000" stroke="none">
<path d="M0 9600 l0 -9600 9600 0 9600 0 0 9600 0 9600 -9600 0 -9600 0 0
-9600z m10320 3530 l0 -2520 490 0 490 0 2 1791 3 1791 1500 728 1500 727 3
-2518 2 -2519 1824 -2 1824 -3 -792 -1565 -792 -1565 -1032 -3 -1032 -2 -2
-881 -3 -881 -1500 -728 -1500 -727 -3 1608 -2 1609 -490 0 -490 0 -2 -1827
-3 -1827 -1500 -867 -1500 -866 -3 2693 -2 2694 -63 0 c-64 1 -112 3 -347 21
-806 59 -1628 307 -2310 698 -1114 639 -1872 1645 -2074 2751 -49 272 -69 639
-47 890 77 883 460 1680 1126 2345 816 815 1965 1333 3215 1449 242 23 160 22
1898 24 l1612 2 0 -2520z"/>
<path d="M7065 12634 c-321 -43 -632 -146 -857 -282 -412 -250 -585 -616 -451
-952 42 -104 89 -174 178 -268 214 -225 547 -390 950 -471 144 -28 329 -47
413 -42 9 1 12 211 12 1016 l0 1015 -72 -1 c-40 -1 -118 -7 -173 -15z"/>
</g>
</svg>
