<svg width="430" height="171" viewBox="0 0 430 171" fill="none" xmlns="http://www.w3.org/2000/svg">
<path d="M106.128 144.832C105.872 145.685 105.317 146.112 104.464 146.112C104.123 146.112 103.781 146.027 103.44 145.856C102.075 145.003 100.027 143.765 97.296 142.144C94.6507 140.608 91.536 138.901 87.952 137.024C84.368 135.232 80.4 133.397 76.048 131.52C71.7813 129.728 67.344 128.107 62.736 126.656C55.568 136.896 48.528 144.661 41.616 149.952C34.704 155.328 28.3467 158.016 22.544 158.016C18.6187 158.016 15.0347 156.736 11.792 154.176C9.488 152.213 7.90933 149.995 7.056 147.52C6.20267 145.045 6.07467 142.528 6.672 139.968C7.26933 137.408 8.50667 134.933 10.384 132.544C12.3467 130.155 14.992 128.064 18.32 126.272C17.7227 122.261 17.552 117.696 17.808 112.576C18.1493 107.371 18.832 101.909 19.856 96.192C20.9653 90.3893 22.3733 84.5013 24.08 78.528C25.7867 72.4693 27.7493 66.624 29.968 60.992C32.1867 55.2747 34.6187 49.8987 37.264 44.864C39.9093 39.8293 42.64 35.392 45.456 31.552C51.0027 24.0427 56.3787 18.624 61.584 15.296C66.7893 11.968 71.6107 10.304 76.048 10.304C80.656 10.304 84.624 11.9253 87.952 15.168C91.28 18.3253 93.712 22.72 95.248 28.352C96.784 33.8987 97.2107 40.512 96.528 48.192C95.9307 55.7867 93.8827 64.064 90.384 73.024C86.3733 83.3493 82.192 92.7787 77.84 101.312C73.5733 109.76 69.136 117.355 64.528 124.096C70.5867 125.632 76.9867 127.808 83.728 130.624C90.5547 133.44 97.8507 137.109 105.616 141.632C106.384 141.973 106.683 142.613 106.512 143.552L106.128 144.832ZM47.888 32.704C41.744 41.408 36.752 50.1547 32.912 58.944C29.072 67.7333 26.128 76.1813 24.08 84.288C22.032 92.3947 20.7947 99.9467 20.368 106.944C20.0267 113.856 20.2827 119.829 21.136 124.864C23.8667 123.669 26.9387 122.688 30.352 121.92C33.8507 121.237 37.7333 120.896 42 120.896C42.1707 120.896 42.2987 120.939 42.384 121.024C43.2373 117.099 43.792 113.387 44.048 109.888C44.304 106.304 44.4747 103.701 44.56 102.08C44.56 101.653 44.7307 101.269 45.072 100.928C45.4987 100.587 45.9253 100.416 46.352 100.416C46.864 100.416 47.2907 100.629 47.632 101.056C48.0587 101.397 48.2293 101.824 48.144 102.336C47.888 104.299 47.4613 106.987 46.864 110.4C46.2667 113.728 45.456 117.269 44.432 121.024C48.9547 121.109 53.9893 121.749 59.536 122.944C62.608 118.251 65.5947 113.259 68.496 107.968C71.4827 102.677 74.256 97.2587 76.816 91.712C79.4613 86.08 81.8507 80.4053 83.984 74.688C86.1173 68.8853 87.9093 63.168 89.36 57.536C91.0667 51.136 91.8347 45.2907 91.664 40C91.5787 34.624 90.768 30.016 89.232 26.176C87.7813 22.336 85.6907 19.3493 82.96 17.216C80.3147 15.0827 77.2853 14.016 73.872 14.016C70.032 14.016 65.8933 15.5093 61.456 18.496C57.0187 21.3973 52.496 26.1333 47.888 32.704ZM18.448 127.296C14.5227 129.6 11.792 132.373 10.256 135.616C8.80533 138.859 8.336 141.973 8.848 144.96C9.27467 148.032 10.64 150.677 12.944 152.896C15.248 155.2 18.2347 156.48 21.904 156.736C25.232 156.736 28.6453 155.541 32.144 153.152C35.6427 150.848 39.0133 148.032 42.256 144.704C45.584 141.376 48.6133 137.92 51.344 134.336C54.0747 130.837 56.2507 127.851 57.872 125.376C53.0933 124.011 48.4427 123.157 43.92 122.816C43.408 124.437 42.768 126.315 42 128.448C41.232 130.581 40.2507 132.587 39.056 134.464C37.8613 136.427 36.4533 138.048 34.832 139.328C33.2107 140.693 31.3333 141.376 29.2 141.376C27.5787 141.376 26.128 140.907 24.848 139.968C23.6533 139.029 22.6293 137.835 21.776 136.384C20.9227 135.019 20.1973 133.483 19.6 131.776C19.088 130.155 18.704 128.661 18.448 127.296ZM38.544 122.56C35.5573 122.56 32.6133 122.773 29.712 123.2C26.8107 123.712 23.9947 124.565 21.264 125.76C22.032 129.941 23.184 133.184 24.72 135.488C26.256 137.877 28.048 139.072 30.096 139.072C31.8027 139.072 33.296 138.432 34.576 137.152C35.9413 135.957 37.0933 134.507 38.032 132.8C39.056 131.093 39.8667 129.301 40.464 127.424C41.1467 125.547 41.6587 123.968 42 122.688C41.4027 122.603 40.8053 122.56 40.208 122.56C39.696 122.56 39.1413 122.56 38.544 122.56ZM96.397 100.8C96.5677 101.312 96.269 102.123 95.501 103.232C94.8183 104.256 94.0077 105.365 93.069 106.56C92.2157 107.669 91.4477 108.693 90.765 109.632C90.1677 110.571 90.0823 111.168 90.509 111.424C90.6797 111.595 90.893 111.68 91.149 111.68C91.917 111.68 92.8983 111.211 94.093 110.272C95.373 109.248 96.6103 108.096 97.805 106.816C99.085 105.536 100.28 104.299 101.389 103.104C102.498 101.824 103.309 100.885 103.821 100.288C104.077 99.8613 104.461 99.648 104.973 99.648C105.058 99.648 105.101 99.6907 105.101 99.776C105.186 99.776 105.272 99.776 105.357 99.776C106.04 99.9467 106.466 100.288 106.637 100.8C106.808 101.227 106.68 101.696 106.253 102.208C105.57 103.147 104.76 104.171 103.821 105.28C102.968 106.389 101.986 107.499 100.877 108.608C100.706 110.229 101.346 111.381 102.797 112.064C102.968 112.235 103.181 112.32 103.437 112.32C103.778 112.32 104.077 112.32 104.333 112.32C105.613 112.32 106.978 111.893 108.429 111.04C109.88 110.187 111.245 109.205 112.525 108.096C113.89 106.901 115.085 105.749 116.109 104.64C117.133 103.531 117.816 102.763 118.157 102.336C118.328 102.165 118.498 102.165 118.669 102.336C118.925 102.421 118.968 102.635 118.797 102.976C118.37 103.403 117.602 104.213 116.493 105.408C115.469 106.603 114.232 107.84 112.781 109.12C111.416 110.315 109.922 111.381 108.301 112.32C106.765 113.259 105.357 113.728 104.077 113.728C102.968 113.728 102.029 113.301 101.261 112.448C100.493 111.595 100.024 110.656 99.853 109.632C98.4023 110.997 96.8663 112.192 95.245 113.216C93.6237 114.155 92.045 114.624 90.509 114.624C89.6557 114.624 88.8877 114.453 88.205 114.112C86.8397 113.515 86.285 112.533 86.541 111.168C86.7117 109.717 87.2237 108.224 88.077 106.688C88.9303 105.152 89.869 103.744 90.893 102.464C91.917 101.099 92.5997 100.245 92.941 99.904C93.3677 99.4773 93.965 99.264 94.733 99.264C95.0743 99.264 95.373 99.3493 95.629 99.52C95.9703 99.6907 96.2263 100.117 96.397 100.8ZM117.298 108.224C116.103 109.76 115.421 111.125 115.25 112.32C115.165 113.515 115.591 114.155 116.53 114.24C117.895 114.325 119.602 113.813 121.65 112.704C123.783 111.509 125.874 110.187 127.922 108.736C129.97 107.285 131.762 105.92 133.298 104.64C134.919 103.36 135.901 102.592 136.242 102.336C136.327 102.251 136.37 102.251 136.37 102.336C136.797 102.336 136.882 102.464 136.626 102.72C136.114 103.317 135.09 104.341 133.554 105.792C132.018 107.157 130.269 108.565 128.306 110.016C126.343 111.467 124.253 112.747 122.034 113.856C119.815 114.965 117.725 115.52 115.762 115.52C114.994 115.52 114.439 115.477 114.098 115.392C112.562 115.051 111.751 114.112 111.666 112.576C111.495 110.955 111.879 109.248 112.818 107.456C113.671 105.579 114.909 103.872 116.53 102.336C118.237 100.8 120.071 99.8613 122.034 99.52C122.461 99.4347 122.973 99.392 123.57 99.392C124.509 99.392 125.234 99.5627 125.746 99.904C126.258 100.16 126.599 100.501 126.77 100.928C127.026 101.269 127.154 101.653 127.154 102.08C127.154 102.507 127.154 102.805 127.154 102.976C126.983 103.573 126.471 104.171 125.618 104.768C124.765 105.365 123.826 105.92 122.802 106.432C121.778 106.859 120.711 107.243 119.602 107.584C118.578 107.925 117.81 108.139 117.298 108.224ZM129.544 113.472C129.117 112.704 129.16 111.552 129.672 110.016C130.184 108.395 130.824 106.816 131.592 105.28C132.275 103.744 132.957 102.379 133.64 101.184C134.323 99.904 134.707 99.2213 134.792 99.136C134.963 99.0507 135.176 98.9653 135.432 98.88C135.773 98.7093 136.2 98.624 136.712 98.624C137.48 98.624 138.163 99.008 138.76 99.776C139.016 100.373 138.76 101.312 137.992 102.592C137.309 103.872 136.456 105.28 135.432 106.816C134.493 108.181 133.683 109.547 133 110.912C132.232 112.192 132.061 113.045 132.488 113.472C132.573 113.643 132.829 113.643 133.256 113.472C133.683 113.216 134.408 112.619 135.432 111.68C136.2 110.997 137.011 110.187 137.864 109.248C138.803 108.309 139.784 107.285 140.808 106.176C142.515 104.299 144.179 102.635 145.8 101.184C146.653 100.245 147.507 99.776 148.36 99.776C148.957 99.776 149.469 99.9893 149.896 100.416C150.323 100.843 150.664 101.312 150.92 101.824C151.091 102.165 151.005 102.72 150.664 103.488C150.408 104.256 150.067 105.152 149.64 106.176C149.213 107.2 148.787 108.309 148.36 109.504C147.933 110.613 147.635 111.723 147.464 112.832C147.379 113.344 147.507 113.6 147.848 113.6C148.36 113.6 149.213 113.173 150.408 112.32C151.603 111.467 152.883 110.485 154.248 109.376C155.613 108.181 156.979 106.944 158.344 105.664C159.709 104.384 160.819 103.317 161.672 102.464C161.757 102.379 161.885 102.336 162.056 102.336C162.312 102.336 162.483 102.464 162.568 102.72C162.653 102.891 162.611 103.061 162.44 103.232C161.672 104 160.52 105.109 158.984 106.56C157.448 107.925 155.827 109.291 154.12 110.656C152.413 111.936 150.749 113.088 149.128 114.112C147.507 115.136 146.141 115.648 145.032 115.648C144.264 115.648 143.752 115.307 143.496 114.624C143.069 113.771 142.984 112.661 143.24 111.296C143.496 109.931 143.88 108.608 144.392 107.328C144.904 105.963 145.373 104.811 145.8 103.872C146.312 102.848 146.525 102.293 146.44 102.208C146.355 102.208 146.269 102.251 146.184 102.336C145.757 102.763 145.288 103.232 144.776 103.744C144.264 104.171 143.709 104.683 143.112 105.28C142.088 106.304 141.021 107.371 139.912 108.48C138.803 109.504 137.693 110.485 136.584 111.424C135.56 112.277 134.536 113.003 133.512 113.6C132.573 114.112 131.763 114.368 131.08 114.368C130.312 114.197 129.8 113.899 129.544 113.472ZM152.21 137.152C152.125 137.749 151.741 138.048 151.058 138.048C150.717 138.048 150.418 137.877 150.162 137.536C149.565 136.683 149.479 135.019 149.906 132.544C150.333 130.155 151.058 127.253 152.082 123.84C153.106 120.512 154.386 116.843 155.922 112.832C157.458 108.821 159.079 104.768 160.786 100.672C160.615 99.2213 160.061 97.7707 159.122 96.32C158.183 94.784 156.562 93.504 154.258 92.48C153.405 92.0533 152.893 91.712 152.722 91.456C152.466 91.2 152.381 90.9867 152.466 90.816C152.551 90.6453 152.722 90.5173 152.978 90.432C153.149 90.3467 153.319 90.304 153.49 90.304C154.941 90.1333 156.733 89.9627 158.866 89.792C160.914 89.6213 163.175 89.4507 165.65 89.28C167.613 84.7573 169.362 80.7893 170.898 77.376C172.434 73.9627 173.458 71.616 173.97 70.336C174.226 69.824 174.61 69.3973 175.122 69.056C175.719 68.7147 176.274 68.544 176.786 68.544C177.725 68.544 178.322 69.0987 178.578 70.208C178.663 70.464 178.493 71.1467 178.066 72.256C177.639 73.28 177.042 74.6453 176.274 76.352C175.506 77.9733 174.567 79.8933 173.458 82.112C172.434 84.2453 171.282 86.592 170.002 89.152C173.842 88.9813 177.639 88.8533 181.394 88.768C185.234 88.5973 188.647 88.512 191.634 88.512C194.109 88.512 196.157 88.5547 197.778 88.64C199.485 88.7253 200.466 88.8533 200.722 89.024C200.978 89.1093 201.106 89.1947 201.106 89.28C201.106 89.3653 200.722 89.408 199.954 89.408C199.186 89.408 197.863 89.4507 195.986 89.536C194.109 89.536 191.378 89.6213 187.794 89.792C185.405 89.9627 182.546 90.0907 179.218 90.176C175.975 90.176 172.69 90.2613 169.362 90.432C167.058 95.04 164.669 99.904 162.194 105.024C159.805 110.144 157.714 114.923 155.922 119.36C154.045 123.712 152.679 127.424 151.826 130.496C150.887 133.568 150.845 135.36 151.698 135.872C152.21 136.128 152.381 136.555 152.21 137.152ZM155.922 91.712C155.837 91.712 156.05 91.8827 156.562 92.224C156.989 92.48 157.543 92.9493 158.226 93.632C158.823 94.2293 159.421 95.04 160.018 96.064C160.615 97.0027 160.999 98.24 161.17 99.776C161.853 98.24 162.493 96.704 163.09 95.168C163.687 93.632 164.327 92.1387 165.01 90.688C163.303 90.8587 161.682 91.0293 160.146 91.2C158.61 91.3707 157.202 91.5413 155.922 91.712ZM188.661 103.104C187.978 103.787 186.869 104.853 185.333 106.304C183.882 107.755 182.261 109.205 180.469 110.656C178.677 112.021 176.842 113.259 174.965 114.368C173.173 115.392 171.594 115.904 170.229 115.904C169.632 115.904 169.205 115.819 168.949 115.648C167.584 115.136 167.072 113.984 167.413 112.192C167.754 110.4 168.394 108.565 169.333 106.688C170.442 104.469 171.893 101.995 173.685 99.264C173.856 99.1787 174.069 99.0933 174.325 99.008C174.837 98.8373 175.306 98.752 175.733 98.752C176.16 98.752 176.544 98.88 176.885 99.136C177.312 99.3067 177.653 99.648 177.909 100.16C178.25 100.757 177.909 101.824 176.885 103.36C175.946 104.896 174.88 106.517 173.685 108.224C172.576 109.845 171.637 111.296 170.869 112.576C170.101 113.856 170.058 114.581 170.741 114.752C170.826 114.837 170.997 114.88 171.253 114.88C172.362 114.88 173.77 114.283 175.477 113.088C177.269 111.893 179.018 110.571 180.725 109.12C182.517 107.669 184.096 106.304 185.461 105.024C186.826 103.659 187.68 102.805 188.021 102.464C188.106 102.379 188.234 102.336 188.405 102.336C188.576 102.336 188.704 102.421 188.789 102.592C188.874 102.763 188.832 102.933 188.661 103.104ZM179.061 96.064C178.464 96.064 177.824 95.7653 177.141 95.168C176.544 94.5707 176.416 93.5893 176.757 92.224C176.928 91.3707 177.312 90.6027 177.909 89.92C178.506 89.152 179.274 88.768 180.213 88.768C181.152 88.768 181.92 89.1947 182.517 90.048C182.688 90.4747 182.816 90.944 182.901 91.456C182.986 91.968 182.901 92.5653 182.645 93.248C182.218 94.272 181.664 95.04 180.981 95.552C180.298 95.9787 179.658 96.1493 179.061 96.064ZM181.794 113.472C181.367 112.704 181.41 111.552 181.922 110.016C182.434 108.395 183.074 106.816 183.842 105.28C184.525 103.744 185.207 102.379 185.89 101.184C186.573 99.904 186.957 99.2213 187.042 99.136C187.213 99.0507 187.426 98.9653 187.682 98.88C188.023 98.7093 188.45 98.624 188.962 98.624C189.73 98.624 190.413 99.008 191.01 99.776C191.266 100.373 191.01 101.312 190.242 102.592C189.559 103.872 188.706 105.28 187.682 106.816C186.743 108.181 185.933 109.547 185.25 110.912C184.482 112.192 184.311 113.045 184.738 113.472C184.823 113.643 185.079 113.643 185.506 113.472C185.933 113.216 186.658 112.619 187.682 111.68C188.45 110.997 189.261 110.187 190.114 109.248C191.053 108.309 192.034 107.285 193.058 106.176C194.765 104.299 196.429 102.635 198.05 101.184C198.903 100.245 199.757 99.776 200.61 99.776C201.207 99.776 201.719 99.9893 202.146 100.416C202.573 100.843 202.914 101.312 203.17 101.824C203.341 102.165 203.255 102.72 202.914 103.488C202.658 104.256 202.317 105.152 201.89 106.176C201.463 107.2 201.037 108.309 200.61 109.504C200.183 110.613 199.885 111.723 199.714 112.832C199.629 113.344 199.757 113.6 200.098 113.6C200.61 113.6 201.463 113.173 202.658 112.32C203.853 111.467 205.133 110.485 206.498 109.376C207.863 108.181 209.229 106.944 210.594 105.664C211.959 104.384 213.069 103.317 213.922 102.464C214.007 102.379 214.135 102.336 214.306 102.336C214.562 102.336 214.733 102.464 214.818 102.72C214.903 102.891 214.861 103.061 214.69 103.232C213.922 104 212.77 105.109 211.234 106.56C209.698 107.925 208.077 109.291 206.37 110.656C204.663 111.936 202.999 113.088 201.378 114.112C199.757 115.136 198.391 115.648 197.282 115.648C196.514 115.648 196.002 115.307 195.746 114.624C195.319 113.771 195.234 112.661 195.49 111.296C195.746 109.931 196.13 108.608 196.642 107.328C197.154 105.963 197.623 104.811 198.05 103.872C198.562 102.848 198.775 102.293 198.69 102.208C198.605 102.208 198.519 102.251 198.434 102.336C198.007 102.763 197.538 103.232 197.026 103.744C196.514 104.171 195.959 104.683 195.362 105.28C194.338 106.304 193.271 107.371 192.162 108.48C191.053 109.504 189.943 110.485 188.834 111.424C187.81 112.277 186.786 113.003 185.762 113.6C184.823 114.112 184.013 114.368 183.33 114.368C182.562 114.197 182.05 113.899 181.794 113.472ZM289.093 93.12C288.837 93.632 288.581 94.144 288.325 94.656C288.154 95.0827 287.941 95.552 287.685 96.064C284.016 104.256 280.688 112.363 277.701 120.384C274.8 128.405 272.24 135.744 270.021 142.4C267.888 149.056 266.096 154.688 264.645 159.296C263.28 163.989 262.298 167.019 261.701 168.384C261.189 169.749 260.25 170.432 258.885 170.432C258.714 170.432 258.586 170.389 258.501 170.304C258.416 170.304 258.288 170.304 258.117 170.304C257.434 170.133 256.837 169.707 256.325 169.024C255.898 168.341 255.856 167.659 256.197 166.976L255.941 167.488C255.941 167.488 256.24 166.507 256.837 164.544C257.434 162.667 258.33 160.021 259.525 156.608C260.805 153.195 262.298 149.184 264.005 144.576C265.712 139.968 267.589 134.933 269.637 129.472C271.77 124.096 274.074 118.464 276.549 112.576C279.024 106.603 281.584 100.629 284.229 94.656C284.4 94.4853 284.485 94.3147 284.485 94.144C284.57 93.888 284.698 93.6747 284.869 93.504C280.688 93.76 276.549 94.016 272.453 94.272C268.357 94.4427 264.474 94.528 260.805 94.528C259.61 94.528 258.458 94.528 257.349 94.528C256.24 94.4427 255.13 94.4 254.021 94.4C251.717 99.8613 249.626 105.237 247.749 110.528C245.957 115.733 244.336 120.512 242.885 124.864C241.52 129.216 240.368 132.885 239.429 135.872C238.576 138.944 237.978 140.949 237.637 141.888C237.381 142.485 237.082 142.827 236.741 142.912C236.314 143.083 235.802 143.168 235.205 143.168C234.778 142.997 234.437 142.656 234.181 142.144C233.84 141.717 233.754 141.291 233.925 140.864L233.797 141.12C233.797 141.12 234.01 140.48 234.437 139.2C234.778 138.005 235.333 136.299 236.101 134.08C236.869 131.861 237.765 129.216 238.789 126.144C239.898 123.157 241.136 119.872 242.501 116.288C243.184 113.045 243.653 110.187 243.909 107.712C244.165 105.152 244.25 102.933 244.165 101.056C244.08 99.0933 243.909 97.4293 243.653 96.064C243.482 94.6987 243.269 93.5893 243.013 92.736C240.026 91.7973 238.96 90.3893 239.813 88.512C240.24 87.744 240.88 87.36 241.733 87.36C242.245 87.36 242.714 87.5733 243.141 88C243.568 88.3413 243.866 88.9813 244.037 89.92C244.208 90.2613 244.336 90.9013 244.421 91.84C246.213 92.4373 248.688 92.8213 251.845 92.992C252.016 92.5653 252.186 92.1387 252.357 91.712C252.613 91.2853 252.826 90.8587 252.997 90.432C255.216 85.312 257.434 80.2773 259.653 75.328C261.957 70.3787 264.133 65.8133 266.181 61.632C268.229 57.3653 270.106 53.696 271.813 50.624C273.52 47.552 274.928 45.376 276.037 44.096C276.634 43.4987 277.274 43.2 277.957 43.2C278.128 43.2 278.384 43.2853 278.725 43.456C279.237 43.712 279.536 44.096 279.621 44.608C279.706 45.12 279.664 45.5893 279.493 46.016C278.896 47.04 278.426 48.0213 278.085 48.96C277.744 49.728 276.762 51.4347 275.141 54.08C273.52 56.7253 271.6 60.0107 269.381 63.936C267.162 67.776 264.816 72.0853 262.341 76.864C259.866 81.5573 257.52 86.4213 255.301 91.456C255.13 91.712 255.002 92.0107 254.917 92.352C254.832 92.608 254.704 92.864 254.533 93.12C255.13 93.2053 255.685 93.248 256.197 93.248C256.794 93.248 257.392 93.248 257.989 93.248C262.085 93.248 266.48 93.0773 271.173 92.736C275.952 92.3947 280.773 91.968 285.637 91.456C288.794 84.3733 291.952 77.4613 295.109 70.72C298.352 63.8933 301.424 57.6213 304.325 51.904C307.226 46.1867 309.872 41.28 312.261 37.184C314.65 33.0027 316.656 30.016 318.277 28.224C319.13 27.3707 320.026 26.944 320.965 26.944C321.306 26.944 321.733 27.0293 322.245 27.2C322.928 27.6267 323.354 28.1813 323.525 28.864C323.696 29.5467 323.61 30.2293 323.269 30.912C322.928 31.5947 322.586 32.32 322.245 33.088C321.904 33.7707 321.562 34.4533 321.221 35.136C320.709 36.2453 319.386 38.5067 317.253 41.92C315.12 45.3333 312.56 49.5573 309.573 54.592C306.586 59.6267 303.344 65.3013 299.845 71.616C296.432 77.8453 293.146 84.3307 289.989 91.072C293.317 90.7307 296.517 90.3893 299.589 90.048C302.661 89.6213 305.477 89.2373 308.037 88.896C310.682 88.5547 312.986 88.256 314.949 88C316.912 87.744 318.405 87.5733 319.429 87.488C320.453 87.3173 320.965 87.7867 320.965 88.896C320.965 89.7493 320.538 90.176 319.685 90.176C318.661 90.2613 317.168 90.432 315.205 90.688C313.242 90.8587 310.896 91.072 308.165 91.328C305.52 91.584 302.533 91.8827 299.205 92.224C295.962 92.5653 292.592 92.864 289.093 93.12ZM243.653 113.216C244.848 110.229 246.085 107.157 247.365 104C248.645 100.757 249.968 97.472 251.333 94.144C250.053 94.0587 248.858 93.9307 247.749 93.76C246.64 93.5893 245.616 93.4187 244.677 93.248C244.933 95.04 245.061 97.5573 245.061 100.8C245.061 104.043 244.592 108.181 243.653 113.216ZM300.923 108.224C299.728 109.76 299.046 111.125 298.875 112.32C298.79 113.515 299.216 114.155 300.155 114.24C301.52 114.325 303.227 113.813 305.275 112.704C307.408 111.509 309.499 110.187 311.547 108.736C313.595 107.285 315.387 105.92 316.923 104.64C318.544 103.36 319.526 102.592 319.867 102.336C319.952 102.251 319.995 102.251 319.995 102.336C320.422 102.336 320.507 102.464 320.251 102.72C319.739 103.317 318.715 104.341 317.179 105.792C315.643 107.157 313.894 108.565 311.931 110.016C309.968 111.467 307.878 112.747 305.659 113.856C303.44 114.965 301.35 115.52 299.387 115.52C298.619 115.52 298.064 115.477 297.723 115.392C296.187 115.051 295.376 114.112 295.291 112.576C295.12 110.955 295.504 109.248 296.443 107.456C297.296 105.579 298.534 103.872 300.155 102.336C301.862 100.8 303.696 99.8613 305.659 99.52C306.086 99.4347 306.598 99.392 307.195 99.392C308.134 99.392 308.859 99.5627 309.371 99.904C309.883 100.16 310.224 100.501 310.395 100.928C310.651 101.269 310.779 101.653 310.779 102.08C310.779 102.507 310.779 102.805 310.779 102.976C310.608 103.573 310.096 104.171 309.243 104.768C308.39 105.365 307.451 105.92 306.427 106.432C305.403 106.859 304.336 107.243 303.227 107.584C302.203 107.925 301.435 108.139 300.923 108.224ZM313.169 114.88C312.742 114.197 313.041 112.277 314.065 109.12C315.089 105.963 316.582 102.208 318.545 97.856C320.508 93.504 322.726 88.896 325.201 84.032C327.761 79.168 330.278 74.688 332.753 70.592C335.228 66.4107 337.532 62.9973 339.665 60.352C341.884 57.6213 343.59 56.256 344.785 56.256H345.297C346.662 56.8533 347.174 58.2187 346.833 60.352C346.492 62.4 345.596 64.9173 344.145 67.904C342.78 70.8053 341.03 73.9627 338.897 77.376C336.764 80.704 334.545 83.9467 332.241 87.104C330.022 90.2613 327.932 93.12 325.969 95.68C324.006 98.1547 322.513 100.032 321.489 101.312C320.806 102.592 320.209 103.787 319.697 104.896C319.27 106.005 318.886 106.944 318.545 107.712C318.118 108.651 317.734 109.504 317.393 110.272C319.014 108.224 320.636 106.432 322.257 104.896C323.622 103.531 325.073 102.293 326.609 101.184C328.23 100.075 329.681 99.52 330.961 99.52C331.644 99.52 332.198 99.6907 332.625 100.032C333.82 100.8 334.545 101.909 334.801 103.36C335.057 104.811 335.014 106.347 334.673 107.968L345.937 102.336H346.193C346.364 102.336 346.449 102.464 346.449 102.72C346.534 102.891 346.492 103.019 346.321 103.104C345.382 103.616 343.889 104.384 341.841 105.408C339.793 106.432 337.318 107.627 334.417 108.992C333.734 111.467 332.625 113.728 331.089 115.776C329.553 117.824 327.974 118.848 326.353 118.848C326.182 118.848 325.841 118.763 325.329 118.592C323.708 117.909 323.068 117.056 323.409 116.032C323.836 115.008 324.604 114.027 325.713 113.088C326.993 111.979 328.742 110.827 330.961 109.632L331.217 109.504C331.644 108.224 331.9 106.944 331.985 105.664C332.07 104.384 331.9 103.147 331.473 101.952C331.217 101.355 330.79 101.056 330.193 101.056C329.254 101.056 328.017 101.653 326.481 102.848C324.945 103.957 323.409 105.323 321.873 106.944C320.337 108.48 318.929 110.059 317.649 111.68C316.454 113.216 315.686 114.411 315.345 115.264C315.174 115.776 314.918 116.032 314.577 116.032C313.98 116.032 313.51 115.648 313.169 114.88ZM345.297 60.224C344.785 60.224 343.932 61.0347 342.737 62.656C341.542 64.192 340.177 66.1973 338.641 68.672C337.19 71.1467 335.612 73.8773 333.905 76.864C332.284 79.8507 330.705 82.7947 329.169 85.696C327.718 88.512 326.396 91.072 325.201 93.376C324.092 95.68 323.281 97.344 322.769 98.368C324.476 96.4053 326.524 93.888 328.913 90.816C331.302 87.744 333.649 84.5013 335.953 81.088C338.257 77.5893 340.305 74.1333 342.097 70.72C343.889 67.2213 345.041 64.1067 345.553 61.376C345.724 60.608 345.638 60.224 345.297 60.224ZM330.705 111.04C328.742 112.149 327.164 113.216 325.969 114.24C324.774 115.264 324.39 116.117 324.817 116.8C325.073 117.227 325.372 117.44 325.713 117.44C326.396 117.44 327.206 116.843 328.145 115.648C329.169 114.368 330.022 112.832 330.705 111.04ZM345.423 108.224C344.228 109.76 343.546 111.125 343.375 112.32C343.29 113.515 343.716 114.155 344.655 114.24C346.02 114.325 347.727 113.813 349.775 112.704C351.908 111.509 353.999 110.187 356.047 108.736C358.095 107.285 359.887 105.92 361.423 104.64C363.044 103.36 364.026 102.592 364.367 102.336C364.452 102.251 364.495 102.251 364.495 102.336C364.922 102.336 365.007 102.464 364.751 102.72C364.239 103.317 363.215 104.341 361.679 105.792C360.143 107.157 358.394 108.565 356.431 110.016C354.468 111.467 352.378 112.747 350.159 113.856C347.94 114.965 345.85 115.52 343.887 115.52C343.119 115.52 342.564 115.477 342.223 115.392C340.687 115.051 339.876 114.112 339.791 112.576C339.62 110.955 340.004 109.248 340.943 107.456C341.796 105.579 343.034 103.872 344.655 102.336C346.362 100.8 348.196 99.8613 350.159 99.52C350.586 99.4347 351.098 99.392 351.695 99.392C352.634 99.392 353.359 99.5627 353.871 99.904C354.383 100.16 354.724 100.501 354.895 100.928C355.151 101.269 355.279 101.653 355.279 102.08C355.279 102.507 355.279 102.805 355.279 102.976C355.108 103.573 354.596 104.171 353.743 104.768C352.89 105.365 351.951 105.92 350.927 106.432C349.903 106.859 348.836 107.243 347.727 107.584C346.703 107.925 345.935 108.139 345.423 108.224ZM385.061 103.104C384.293 103.701 383.098 104.683 381.477 106.048C379.856 107.413 378.021 108.779 375.973 110.144C373.925 111.509 371.834 112.704 369.701 113.728C367.568 114.752 365.648 115.264 363.941 115.264C362.576 115.264 361.509 114.923 360.741 114.24C359.802 113.387 359.504 112.491 359.845 111.552C360.101 110.613 360.528 109.675 361.125 108.736C361.722 107.712 362.277 106.731 362.789 105.792C363.301 104.853 363.344 104 362.917 103.232C361.978 101.696 361.936 100.16 362.789 98.624C363.728 97.088 364.922 96.0213 366.373 95.424C367.056 95.168 367.568 95.04 367.909 95.04C368.848 95.04 369.402 95.3813 369.573 96.064C369.829 96.6613 369.829 97.216 369.573 97.728C369.232 98.3253 368.762 98.88 368.165 99.392C367.568 99.904 366.97 100.373 366.373 100.8C365.861 101.141 365.392 101.44 364.965 101.696C364.624 101.952 364.496 102.123 364.581 102.208C365.861 103.317 366.373 104.512 366.117 105.792C365.861 106.987 365.392 108.139 364.709 109.248C364.026 110.272 363.429 111.211 362.917 112.064C362.405 112.832 362.533 113.387 363.301 113.728C363.557 113.899 363.813 113.984 364.069 113.984C364.41 113.984 364.709 113.984 364.965 113.984C366.586 113.984 368.464 113.429 370.597 112.32C372.73 111.211 374.778 109.973 376.741 108.608C378.704 107.243 380.453 105.963 381.989 104.768C383.525 103.488 384.464 102.72 384.805 102.464C384.976 102.464 385.104 102.549 385.189 102.72C385.274 102.805 385.232 102.933 385.061 103.104ZM374.71 137.152C374.625 137.749 374.241 138.048 373.558 138.048C373.217 138.048 372.918 137.877 372.662 137.536C372.065 136.683 371.979 135.019 372.406 132.544C372.833 130.155 373.558 127.253 374.582 123.84C375.606 120.512 376.886 116.843 378.422 112.832C379.958 108.821 381.579 104.768 383.286 100.672C383.115 99.2213 382.561 97.7707 381.622 96.32C380.683 94.784 379.062 93.504 376.758 92.48C375.905 92.0533 375.393 91.712 375.222 91.456C374.966 91.2 374.881 90.9867 374.966 90.816C375.051 90.6453 375.222 90.5173 375.478 90.432C375.649 90.3467 375.819 90.304 375.99 90.304C377.441 90.1333 379.233 89.9627 381.366 89.792C383.414 89.6213 385.675 89.4507 388.15 89.28C390.113 84.7573 391.862 80.7893 393.398 77.376C394.934 73.9627 395.958 71.616 396.47 70.336C396.726 69.824 397.11 69.3973 397.622 69.056C398.219 68.7147 398.774 68.544 399.286 68.544C400.225 68.544 400.822 69.0987 401.078 70.208C401.163 70.464 400.993 71.1467 400.566 72.256C400.139 73.28 399.542 74.6453 398.774 76.352C398.006 77.9733 397.067 79.8933 395.958 82.112C394.934 84.2453 393.782 86.592 392.502 89.152C396.342 88.9813 400.139 88.8533 403.894 88.768C407.734 88.5973 411.147 88.512 414.134 88.512C416.609 88.512 418.657 88.5547 420.278 88.64C421.985 88.7253 422.966 88.8533 423.222 89.024C423.478 89.1093 423.606 89.1947 423.606 89.28C423.606 89.3653 423.222 89.408 422.454 89.408C421.686 89.408 420.363 89.4507 418.486 89.536C416.609 89.536 413.878 89.6213 410.294 89.792C407.905 89.9627 405.046 90.0907 401.718 90.176C398.475 90.176 395.19 90.2613 391.862 90.432C389.558 95.04 387.169 99.904 384.694 105.024C382.305 110.144 380.214 114.923 378.422 119.36C376.545 123.712 375.179 127.424 374.326 130.496C373.387 133.568 373.345 135.36 374.198 135.872C374.71 136.128 374.881 136.555 374.71 137.152ZM378.422 91.712C378.337 91.712 378.55 91.8827 379.062 92.224C379.489 92.48 380.043 92.9493 380.726 93.632C381.323 94.2293 381.921 95.04 382.518 96.064C383.115 97.0027 383.499 98.24 383.67 99.776C384.353 98.24 384.993 96.704 385.59 95.168C386.187 93.632 386.827 92.1387 387.51 90.688C385.803 90.8587 384.182 91.0293 382.646 91.2C381.11 91.3707 379.702 91.5413 378.422 91.712Z" fill="white"/>
</svg>
